<!DOCTYPE svg PUBLIC "-//W3C//DTD SVG 1.1//EN" "http://www.w3.org/Graphics/SVG/1.1/DTD/svg11.dtd">
<!-- Uploaded to: SVG Repo, www.svgrepo.com, Transformed by: SVG Repo Mixer Tools -->
<svg width="800px" height="800px" viewBox="0 0 1024 1024" class="icon" version="1.1" xmlns="http://www.w3.org/2000/svg" fill="#ebd700" stroke="#ebd700">
<g id="SVGRepo_bgCarrier" stroke-width="0"/>
<g id="SVGRepo_tracerCarrier" stroke-linecap="round" stroke-linejoin="round"/>
<g id="SVGRepo_iconCarrier">
<path d="M276.972243 349.776633h166.893308v41.979298h-166.893308zM912.752812 766.559393l-18.112532 31.777305c-22.658582 39.825044-59.863503 39.825044-82.522085 0l-18.113556-31.777305c8.462412-24.211816 31.889932-41.544147 59.374087-41.544147 27.484154 0 50.911674 17.333355 59.374086 41.544147z" fill="#121212"/>
<path d="M902.332731 181.85944h-97.908011c-30.848641 0-59.536884 28.050362-59.536883 58.900027v53.727358h27.644903V240.759467c0-15.427904 16.464076-31.255123 31.89198-31.255123h97.908011c15.427904 0 23.783832 15.827219 23.783832 31.255123v53.727358h28.668789V240.759467c-0.001024-30.848641-21.60398-58.900027-52.452621-58.900027zM226.801862 482.881725h265.186299v27.644904h-265.186299zM226.801862 552.505927h210.920377v27.644904h-210.920377zM226.801862 623.154015h154.606684v27.644904h-154.606684z" fill="#f5d400"/>
<path d="M598.436399 239.568688c-6.390068-32.019966-32.885149-57.708225-66.754251-57.708224H195.998272c-38.559521 0-73.632713 34.326779-73.632713 72.8863v45.884397h-17.28216c-23.138784 0-41.960868 18.840514-41.960869 41.979299s18.822084 41.979298 41.960869 41.979298h17.28216v28.668789h-17.28216c-23.138784 0-41.960868 18.840514-41.960869 41.979298s18.822084 41.979298 41.960869 41.979299h17.28216v26.621018h-17.28216c-23.138784 0-41.960868 19.352457-41.960869 42.491241s18.822084 42.491241 41.960869 42.491241h17.28216v28.668789h-17.28216c-23.138784 0-41.960868 18.328571-41.960869 41.467356s18.822084 41.467356 41.960869 41.467355h17.28216v51.835219c0 38.559521 35.073192 66.935479 73.632713 66.935479h398.624154c38.559521 0 66.306814-28.375958 66.306814-66.935479V310.693906c0-36.660214-26.561633-68.241957-62.492841-71.125218z m-0.988049 201.333739h36.859871v41.979298h-36.859871v-41.979298z m0 139.248404h36.859871v43.003184h-36.859871v-43.003184z m-492.364951-223.207001c-7.71088 0-13.987297-5.599629-13.987298-13.310509s6.276417-13.310509 13.987298-13.310509h17.28216v26.621018h-17.28216z m0 112.627386c-7.71088 0-13.987297-6.623514-13.987298-14.334395s6.276417-14.334395 13.987298-14.334394h17.28216v28.668789h-17.28216z m0 110.579615c-7.71088 0-13.987297-6.111572-13.987298-13.822452s6.276417-13.822452 13.987298-13.822452h17.28216v27.644904h-17.28216z m0 111.603501c-7.71088 0-13.987297-5.087686-13.987298-12.798567s6.276417-12.798567 13.987298-12.798567h17.28216v25.597134h-17.28216z m398.624154 119.794583H195.998272c-23.138784 0-45.987809-16.152815-45.987809-39.290576V666.157198h21.501592v-28.668789h-21.501592v-84.982482h21.501592v-28.668789h-21.501592v-82.934711h21.501592v-27.644904h-21.501592v-82.934711h21.501592v-29.692675h-21.501592V254.74574c0-23.138784 22.849025-45.241397 45.987809-45.241396h335.683876c23.138784 0 39.146208 22.103636 39.146207 45.241396v517.512599c0 23.138784-16.007423 39.290575-39.146207 39.290576h-27.974595z m130.600668-39.290576c0 23.138784-16.548035 39.290575-39.685795 39.290576h-7.128289c8.82282-7.167197 9.954213-23.539124 9.954213-39.290576V650.798919h36.859871V772.258339z m0-219.752412h-36.859871v-41.979298h36.859871v41.979298z m-36.859871-139.248404V269.364775c21.501592 3.345033 36.859872 20.577023 36.859871 41.329131v102.564641h-36.859871z" fill="#f50000"/>
<path d="M226.801862 440.902427h265.186299v-140.27229h-265.186299v140.27229z m28.668789-110.579615h209.896492v82.934711h-209.896492v-82.934711zM954.784328 279.128546h-209.896491v421.840753h3.87131c-0.098293 6.143312-3.87131 4.99656-3.87131 6.852865v7.143648l53.255347 90.26573c13.576719 23.821716 33.453405 36.940759 54.337594 36.940759s38.564641-13.119043 52.142384-36.940759l50.161166-90.26573v-7.143648c0-1.856304 3.310221-0.709553 3.211928-6.852865h-3.211928v-421.840753z m-28.668789 28.668789v28.668789h-153.582799v-28.668789h153.582799z m-43.596013 483.58411c-8.270946 14.505383-18.890684 22.817284-29.141824 22.817285s-20.870878-8.311901-29.141824-22.817285l-47.785752-83.831635c0.150511-41.462236 34.605276-75.158302 76.927576-75.158302 42.3223 0 76.777065 33.69709 76.927576 75.158302l-47.785752 83.831635z m15.951109-174.946166V406.090326h-26.621018v200.410194c0-1.362791-14.501288-2.083607-21.684867-2.083607-30.40837 0-56.130417 12.89686-77.63201 33.339754V365.134913h29.692675v193.514326h26.621018v-193.514326h97.269106v272.62073c-6.143312-8.55661-13.310509-15.815957-27.644904-21.320364z" fill="#f50000"/>
</g>
</svg>